<svg width="46" height="46" viewBox="0 0 46 46" fill="none" xmlns="http://www.w3.org/2000/svg">
<path d="M10.9844 14.0273H19.3398V17.8242H15.918V21.4219H18.9648V25.0312H15.918V33H10.9844V14.0273ZM34.2906 14.0273V33H29.357V25.0312H27.8805V33H22.9469V14.0273H27.8805V20.8125H29.357V14.0273H34.2906Z" fill="white"/>
<rect x="0.5" y="0.5" width="45" height="45" stroke="white"/>
<path d="M20.2866 44.2095V44.3096C20.2459 44.3096 20.2218 44.3115 20.2144 44.3154C20.2072 44.319 20.2036 44.3296 20.2036 44.3472V44.3677H20.2866V44.4702H20.2397V45H20.0425V44.4702H20.002V44.3677H20.0425C20.0425 44.325 20.0439 44.2965 20.0469 44.2822C20.0498 44.2679 20.057 44.2552 20.0684 44.2441C20.0801 44.2327 20.0964 44.2241 20.1172 44.2183C20.138 44.2124 20.1704 44.2095 20.2144 44.2095H20.2866ZM20.7759 44.3521V45H20.5752L20.5786 44.9463C20.5649 44.9681 20.548 44.9845 20.5278 44.9956C20.508 45.0063 20.485 45.0117 20.459 45.0117C20.4294 45.0117 20.4048 45.0065 20.3853 44.9961C20.3657 44.9857 20.3512 44.9718 20.3418 44.9546C20.3327 44.9373 20.327 44.9194 20.3247 44.9009C20.3224 44.882 20.3213 44.8447 20.3213 44.7891V44.3521H20.5186V44.793C20.5186 44.8434 20.52 44.8734 20.5229 44.8828C20.5262 44.8923 20.5347 44.897 20.5483 44.897C20.563 44.897 20.5716 44.8921 20.5742 44.8823C20.5771 44.8726 20.5786 44.8411 20.5786 44.7881V44.3521H20.7759ZM21.2827 44.5967H21.0967V44.522C21.0967 44.4959 21.0946 44.4784 21.0903 44.4692C21.0861 44.4598 21.0783 44.4551 21.0669 44.4551C21.0555 44.4551 21.0479 44.4591 21.0439 44.4673C21.04 44.4754 21.0381 44.4937 21.0381 44.522V44.8276C21.0381 44.8507 21.041 44.8682 21.0469 44.8799C21.0527 44.8913 21.0614 44.897 21.0728 44.897C21.0861 44.897 21.0951 44.891 21.0996 44.8789C21.1045 44.8669 21.1069 44.8441 21.1069 44.8105V44.7334H21.2827C21.2824 44.7852 21.2804 44.8241 21.2769 44.8501C21.2736 44.8758 21.2627 44.9023 21.2441 44.9297C21.2259 44.9567 21.202 44.9772 21.1724 44.9912C21.1427 45.0049 21.1061 45.0117 21.0625 45.0117C21.0068 45.0117 20.9627 45.0023 20.9302 44.9834C20.8976 44.9642 20.8745 44.9375 20.8608 44.9033C20.8475 44.8688 20.8408 44.82 20.8408 44.7568V44.5728C20.8408 44.5177 20.8464 44.4762 20.8574 44.4482C20.8685 44.4202 20.8921 44.3953 20.9282 44.3735C20.9644 44.3514 21.0083 44.3403 21.0601 44.3403C21.1115 44.3403 21.1554 44.3512 21.1919 44.373C21.2284 44.3949 21.2526 44.4224 21.2646 44.4556C21.2767 44.4888 21.2827 44.5358 21.2827 44.5967ZM21.7666 44.3521L21.6865 44.6104L21.7905 45H21.6006L21.5391 44.7178V45H21.3418V44.2095H21.5391V44.5415L21.6006 44.3521H21.7666ZM22.0234 44.2095V44.3125H21.8203V44.2095H22.0234ZM22.0234 44.3521V45H21.8203V44.3521H22.0234ZM22.2954 44.3521L22.292 44.4116C22.3063 44.3879 22.3237 44.3701 22.3442 44.3584C22.3651 44.3464 22.389 44.3403 22.416 44.3403C22.4499 44.3403 22.4775 44.3483 22.499 44.3643C22.5205 44.3802 22.5343 44.4004 22.5405 44.4248C22.5467 44.4489 22.5498 44.4893 22.5498 44.5459V45H22.3525V44.5513C22.3525 44.5067 22.3511 44.4795 22.3481 44.4697C22.3452 44.46 22.3371 44.4551 22.3237 44.4551C22.3097 44.4551 22.3009 44.4608 22.2974 44.4722C22.2938 44.4832 22.292 44.5132 22.292 44.562V45H22.0947V44.3521H22.2954ZM23.0664 44.3521V44.8511C23.0664 44.9185 23.0648 44.9621 23.0615 44.9819C23.0586 45.0015 23.0477 45.0221 23.0288 45.0439C23.0099 45.0661 22.9836 45.0828 22.9497 45.0942C22.9162 45.106 22.8739 45.1118 22.8228 45.1118C22.7599 45.1118 22.7095 45.1011 22.6714 45.0796C22.6333 45.0584 22.6136 45.0166 22.6123 44.9541H22.8037C22.8037 44.9827 22.8141 44.9971 22.835 44.9971C22.8499 44.9971 22.8599 44.9927 22.8647 44.9839C22.8696 44.9751 22.8721 44.9567 22.8721 44.9287V44.8799C22.8551 44.8952 22.8372 44.9067 22.8184 44.9146C22.7998 44.9224 22.7803 44.9263 22.7598 44.9263C22.7243 44.9263 22.695 44.9191 22.6719 44.9048C22.6491 44.8905 22.6335 44.8717 22.625 44.8486C22.6165 44.8252 22.6123 44.792 22.6123 44.749V44.5137C22.6123 44.4521 22.6234 44.4079 22.6455 44.3809C22.6676 44.3538 22.7013 44.3403 22.7466 44.3403C22.7713 44.3403 22.7938 44.3454 22.814 44.3555C22.8345 44.3656 22.8527 44.3807 22.8687 44.4009L22.8828 44.3521H23.0664ZM22.8687 44.5239C22.8687 44.4943 22.8669 44.4754 22.8633 44.4673C22.86 44.4591 22.8525 44.4551 22.8408 44.4551C22.8294 44.4551 22.8213 44.4598 22.8164 44.4692C22.8118 44.4784 22.8096 44.4966 22.8096 44.5239V44.7417C22.8096 44.7707 22.8114 44.7896 22.8149 44.7983C22.8185 44.8068 22.826 44.811 22.8374 44.811C22.8504 44.811 22.8589 44.8058 22.8628 44.7954C22.8667 44.785 22.8687 44.7614 22.8687 44.7246V44.5239ZM23.5107 44.2095V44.3872C23.5277 44.3716 23.5459 44.3599 23.5654 44.3521C23.5853 44.3442 23.6064 44.3403 23.6289 44.3403C23.6634 44.3403 23.6927 44.3491 23.7168 44.3667C23.7412 44.3843 23.756 44.4046 23.7612 44.4277C23.7668 44.4505 23.7695 44.4924 23.7695 44.5532V45H23.5723V44.5439C23.5723 44.5062 23.5703 44.4819 23.5664 44.4712C23.5628 44.4604 23.5545 44.4551 23.5415 44.4551C23.5295 44.4551 23.5213 44.4606 23.5171 44.4717C23.5129 44.4827 23.5107 44.5047 23.5107 44.5376V45H23.3135V44.2095H23.5107ZM24.2842 44.5796V44.7383C24.2842 44.7965 24.2812 44.8394 24.2754 44.8667C24.2695 44.8937 24.257 44.9191 24.2378 44.9429C24.2186 44.9663 24.1938 44.9837 24.1636 44.9951C24.1336 45.0062 24.0991 45.0117 24.0601 45.0117C24.0164 45.0117 23.9795 45.007 23.9492 44.9976C23.9189 44.9878 23.8953 44.9733 23.8784 44.9541C23.8618 44.9346 23.8499 44.9111 23.8428 44.8838C23.8356 44.8561 23.832 44.8148 23.832 44.7598V44.5938C23.832 44.5335 23.8385 44.4865 23.8516 44.4526C23.8646 44.4188 23.888 44.3916 23.9219 44.3711C23.9557 44.3506 23.999 44.3403 24.0518 44.3403C24.096 44.3403 24.134 44.347 24.1655 44.3604C24.1974 44.3734 24.222 44.3905 24.2393 44.4116C24.2565 44.4328 24.2682 44.4546 24.2744 44.4771C24.2809 44.4995 24.2842 44.5337 24.2842 44.5796ZM24.0869 44.5308C24.0869 44.4976 24.0851 44.4767 24.0815 44.4683C24.078 44.4595 24.0703 44.4551 24.0586 44.4551C24.0469 44.4551 24.0391 44.4595 24.0352 44.4683C24.0312 44.4767 24.0293 44.4976 24.0293 44.5308V44.8232C24.0293 44.8538 24.0312 44.8739 24.0352 44.8833C24.0391 44.8924 24.0467 44.897 24.0581 44.897C24.0698 44.897 24.0775 44.8927 24.0811 44.8843C24.085 44.8758 24.0869 44.8576 24.0869 44.8296V44.5308ZM24.5469 44.3521L24.5391 44.437C24.5677 44.3761 24.6092 44.3439 24.6636 44.3403V44.5684C24.6274 44.5684 24.6009 44.5732 24.584 44.583C24.5671 44.5928 24.5566 44.6064 24.5527 44.624C24.5488 44.6413 24.5469 44.6813 24.5469 44.7441V45H24.3496V44.3521H24.5469ZM24.9087 44.3521L24.9053 44.4116C24.9196 44.3879 24.937 44.3701 24.9575 44.3584C24.9784 44.3464 25.0023 44.3403 25.0293 44.3403C25.0632 44.3403 25.0908 44.3483 25.1123 44.3643C25.1338 44.3802 25.1476 44.4004 25.1538 44.4248C25.16 44.4489 25.1631 44.4893 25.1631 44.5459V45H24.9658V44.5513C24.9658 44.5067 24.9644 44.4795 24.9614 44.4697C24.9585 44.46 24.9504 44.4551 24.937 44.4551C24.923 44.4551 24.9142 44.4608 24.9106 44.4722C24.9071 44.4832 24.9053 44.5132 24.9053 44.562V45H24.708V44.3521H24.9087ZM25.6445 44.3521L25.5879 44.8208C25.5791 44.895 25.5716 44.9456 25.5654 44.9727C25.5596 44.9997 25.5496 45.022 25.5356 45.0396C25.5216 45.0571 25.5021 45.07 25.4771 45.0781C25.4523 45.0866 25.4126 45.0908 25.3579 45.0908H25.2383V44.9873C25.2689 44.9873 25.2886 44.9858 25.2974 44.9829C25.3062 44.9797 25.3105 44.9727 25.3105 44.9619C25.3105 44.9567 25.3065 44.9341 25.2983 44.894L25.1904 44.3521H25.3696L25.4341 44.7891L25.4653 44.3521H25.6445Z" fill="white"/>
</svg>
