<svg xmlns="http://www.w3.org/2000/svg" viewBox="0 0 295 147.29"><defs><style>.cls-1,.cls-2{fill:#fff;}.cls-2{font-size:100px;font-family:Impact;}</style></defs><g id="Слой_2" data-name="Слой 2"><g id="Слой_1-2" data-name="Слой 1"><path class="cls-1" d="M224,.75A70.25,70.25,0,1,1,153.75,71,70.32,70.32,0,0,1,224,.75M224,0a71,71,0,1,0,71,71A71,71,0,0,0,224,0Z"/><path class="cls-1" d="M215,.75A70.25,70.25,0,1,1,144.75,71,70.32,70.32,0,0,1,215,.75M215,0a71,71,0,1,0,71,71A71,71,0,0,0,215,0Z"/><path class="cls-1" d="M206,.75A70.25,70.25,0,1,1,135.75,71,70.32,70.32,0,0,1,206,.75M206,0a71,71,0,1,0,71,71A71,71,0,0,0,206,0Z"/><path class="cls-1" d="M197,.75A70.25,70.25,0,1,1,126.75,71,70.32,70.32,0,0,1,197,.75M197,0a71,71,0,1,0,71,71A71,71,0,0,0,197,0Z"/><path class="cls-1" d="M188,.75A70.25,70.25,0,1,1,117.75,71,70.32,70.32,0,0,1,188,.75M188,0a71,71,0,1,0,71,71A71,71,0,0,0,188,0Z"/><path class="cls-1" d="M179,.75A70.25,70.25,0,1,1,108.75,71,70.32,70.32,0,0,1,179,.75M179,0a71,71,0,1,0,71,71A71,71,0,0,0,179,0Z"/><path class="cls-1" d="M170,.75A70.25,70.25,0,1,1,99.75,71,70.32,70.32,0,0,1,170,.75M170,0a71,71,0,1,0,71,71A71,71,0,0,0,170,0Z"/><path class="cls-1" d="M161,.75A70.25,70.25,0,1,1,90.75,71,70.32,70.32,0,0,1,161,.75M161,0a71,71,0,1,0,71,71A71,71,0,0,0,161,0Z"/><path class="cls-1" d="M152,.75A70.25,70.25,0,1,1,81.75,71,70.32,70.32,0,0,1,152,.75M152,0a71,71,0,1,0,71,71A71,71,0,0,0,152,0Z"/><path class="cls-1" d="M143,.75A70.25,70.25,0,1,1,72.75,71,70.32,70.32,0,0,1,143,.75M143,0a71,71,0,1,0,71,71A71,71,0,0,0,143,0Z"/><path class="cls-1" d="M134,.75A70.25,70.25,0,1,1,63.75,71,70.32,70.32,0,0,1,134,.75M134,0a71,71,0,1,0,71,71A71,71,0,0,0,134,0Z"/><path class="cls-1" d="M125,.75A70.25,70.25,0,1,1,54.75,71,70.32,70.32,0,0,1,125,.75M125,0a71,71,0,1,0,71,71A71,71,0,0,0,125,0Z"/><path class="cls-1" d="M116,.75A70.25,70.25,0,1,1,45.75,71,70.32,70.32,0,0,1,116,.75M116,0a71,71,0,1,0,71,71A71,71,0,0,0,116,0Z"/><path class="cls-1" d="M107,.75A70.25,70.25,0,1,1,36.75,71,70.32,70.32,0,0,1,107,.75M107,0a71,71,0,1,0,71,71A71,71,0,0,0,107,0Z"/><path class="cls-1" d="M98,.75A70.25,70.25,0,1,1,27.75,71,70.32,70.32,0,0,1,98,.75M98,0a71,71,0,1,0,71,71A71,71,0,0,0,98,0Z"/><path class="cls-1" d="M89,.75A70.25,70.25,0,1,1,18.75,71,70.32,70.32,0,0,1,89,.75M89,0a71,71,0,1,0,71,71A71,71,0,0,0,89,0Z"/><path class="cls-1" d="M80,.75A70.25,70.25,0,1,1,9.75,71,70.32,70.32,0,0,1,80,.75M80,0a71,71,0,1,0,71,71A71,71,0,0,0,80,0Z"/><path class="cls-1" d="M71,.75A70.25,70.25,0,1,1,.75,71,70.32,70.32,0,0,1,71,.75M71,0a71,71,0,1,0,71,71A71,71,0,0,0,71,0Z"/><text class="cls-2" transform="translate(77.1 114.23)">F</text><text class="cls-2" transform="translate(177.24 114.23)">H</text></g></g></svg>